<svg width="24" height="25" viewBox="0 0 24 25" fill="none" xmlns="http://www.w3.org/2000/svg">
<path d="M5 5.30859H19C19.5304 5.30859 20.0391 5.51931 20.4142 5.89438C20.7893 6.26945 21 6.77816 21 7.30859V19.3086C21 19.839 20.7893 20.3477 20.4142 20.7228C20.0391 21.0979 19.5304 21.3086 19 21.3086H5C4.46957 21.3086 3.96086 21.0979 3.58579 20.7228C3.21071 20.3477 3 19.839 3 19.3086V7.30859C3 6.20859 3.9 5.30859 5 5.30859ZM9 10.3086C8.73478 10.3086 8.48043 10.414 8.29289 10.6015C8.10536 10.789 8 11.0434 8 11.3086C8 11.5738 8.10536 11.8282 8.29289 12.0157C8.48043 12.2032 8.73478 12.3086 9 12.3086H15C15.2652 12.3086 15.5196 12.2032 15.7071 12.0157C15.8946 11.8282 16 11.5738 16 11.3086C16 11.0434 15.8946 10.789 15.7071 10.6015C15.5196 10.414 15.2652 10.3086 15 10.3086H9Z" fill="#AF956B"/>
<path d="M4 3.30859H20C20.5304 3.30859 21.0391 3.51931 21.4142 3.89438C21.7893 4.26945 22 4.77816 22 5.30859V6.30859C22 6.57381 21.8946 6.82816 21.7071 7.0157C21.5196 7.20324 21.2652 7.30859 21 7.30859H3C2.73478 7.30859 2.48043 7.20324 2.29289 7.0157C2.10536 6.82816 2 6.57381 2 6.30859V5.30859C2 4.20859 2.9 3.30859 4 3.30859Z" fill="#0C4461"/>
</svg>
