<svg width="24" height="25" viewBox="0 0 24 25" fill="none" xmlns="http://www.w3.org/2000/svg">
<path d="M4 2.30859H20C20.5304 2.30859 21.0391 2.51931 21.4142 2.89438C21.7893 3.26945 22 3.77816 22 4.30859V16.3086C22 16.839 21.7893 17.3477 21.4142 17.7228C21.0391 18.0979 20.5304 18.3086 20 18.3086H4C3.46957 18.3086 2.96086 18.0979 2.58579 17.7228C2.21071 17.3477 2 16.839 2 16.3086V4.30859C2 3.20859 2.9 2.30859 4 2.30859ZM4 4.30859V14.3086H20V4.30859H4ZM8 20.3086C8 20.0434 8.10536 19.789 8.29289 19.6015C8.48043 19.4139 8.73478 19.3086 9 19.3086H15C15.2652 19.3086 15.5196 19.4139 15.7071 19.6015C15.8946 19.789 16 20.0434 16 20.3086V20.8986L16.7 21.5986C16.8404 21.7379 16.9364 21.9156 16.9758 22.1095C17.0152 22.3033 16.9962 22.5044 16.9213 22.6874C16.8463 22.8705 16.7188 23.0272 16.5548 23.1377C16.3909 23.2483 16.1978 23.3078 16 23.3086H8C7.80427 23.3058 7.61366 23.2457 7.45178 23.1357C7.28991 23.0256 7.1639 22.8704 7.08937 22.6894C7.01484 22.5084 6.99507 22.3095 7.03251 22.1174C7.06995 21.9253 7.16296 21.7484 7.3 21.6086L8 20.8986V20.3086Z" fill="#AF956B"/>
<path d="M2 14.3086H22V16.3086C22 16.839 21.7893 17.3477 21.4142 17.7228C21.0391 18.0979 20.5304 18.3086 20 18.3086H4C3.46957 18.3086 2.96086 18.0979 2.58579 17.7228C2.21071 17.3477 2 16.839 2 16.3086V14.3086Z" fill="#0C4461"/>
</svg>
