<svg width="24" height="25" viewBox="0 0 24 25" fill="none" xmlns="http://www.w3.org/2000/svg">
<path d="M5 3.30859H19C19.5304 3.30859 20.0391 3.51931 20.4142 3.89438C20.7893 4.26945 21 4.77816 21 5.30859V19.3086C21 19.839 20.7893 20.3477 20.4142 20.7228C20.0391 21.0979 19.5304 21.3086 19 21.3086H5C4.46957 21.3086 3.96086 21.0979 3.58579 20.7228C3.21071 20.3477 3 19.839 3 19.3086V5.30859C3 4.20859 3.9 3.30859 5 3.30859ZM5 5.30859V15.3086H7C7.53043 15.3086 8.03914 15.5193 8.41421 15.8944C8.78929 16.2695 9 16.7782 9 17.3086C9 18.4086 9.9 19.3086 11 19.3086H13C13.5304 19.3086 14.0391 19.0979 14.4142 18.7228C14.7893 18.3477 15 17.839 15 17.3086C15 16.2086 15.9 15.3086 17 15.3086H19V5.30859H5Z" fill="#AF956B"/>
<path d="M8 7.30859H16C16.2652 7.30859 16.5196 7.41395 16.7071 7.60149C16.8946 7.78902 17 8.04338 17 8.30859C17 8.57381 16.8946 8.82816 16.7071 9.0157C16.5196 9.20324 16.2652 9.30859 16 9.30859H8C7.73478 9.30859 7.48043 9.20324 7.29289 9.0157C7.10536 8.82816 7 8.57381 7 8.30859C7 8.04338 7.10536 7.78902 7.29289 7.60149C7.48043 7.41395 7.73478 7.30859 8 7.30859ZM8 11.3086H16C16.2652 11.3086 16.5196 11.414 16.7071 11.6015C16.8946 11.789 17 12.0434 17 12.3086C17 12.5738 16.8946 12.8282 16.7071 13.0157C16.5196 13.2032 16.2652 13.3086 16 13.3086H8C7.73478 13.3086 7.48043 13.2032 7.29289 13.0157C7.10536 12.8282 7 12.5738 7 12.3086C7 12.0434 7.10536 11.789 7.29289 11.6015C7.48043 11.414 7.73478 11.3086 8 11.3086Z" fill="#0C4461"/>
</svg>
