<svg width="24" height="25" viewBox="0 0 24 25" fill="none" xmlns="http://www.w3.org/2000/svg">
<path d="M10 15.2284V16.3084C10 16.5736 10.1054 16.828 10.2929 17.0155C10.4804 17.2031 10.7348 17.3084 11 17.3084H13C13.2652 17.3084 13.5196 17.2031 13.7071 17.0155C13.8946 16.828 14 16.5736 14 16.3084V15.2284C16.83 14.9884 19.53 14.2684 22 13.1284V20.3084C22 20.8389 21.7893 21.3476 21.4142 21.7226C21.0391 22.0977 20.5304 22.3084 20 22.3084H4C3.46957 22.3084 2.96086 22.0977 2.58579 21.7226C2.21071 21.3476 2 20.8389 2 20.3084V13.1284C4.52401 14.289 7.23138 14.9997 10 15.2284Z" fill="#AF956B"/>
<path d="M14 13.2286V12.3086C14 12.0434 13.8946 11.789 13.7071 11.6015C13.5196 11.414 13.2652 11.3086 13 11.3086H11C10.7348 11.3086 10.4804 11.414 10.2929 11.6015C10.1054 11.789 10 12.0434 10 12.3086V13.2286C7.23138 12.9999 4.52401 12.2892 2 11.1286V8.30859C2 7.20859 2.9 6.30859 4 6.30859H7V5.30859C7 4.51294 7.31607 3.74988 7.87868 3.18727C8.44129 2.62466 9.20435 2.30859 10 2.30859H14C14.7956 2.30859 15.5587 2.62466 16.1213 3.18727C16.6839 3.74988 17 4.51294 17 5.30859V6.30859H20C20.5304 6.30859 21.0391 6.51931 21.4142 6.89438C21.7893 7.26945 22 7.77816 22 8.30859V11.1286C19.476 12.2892 16.7686 12.9999 14 13.2286ZM15 6.30859V5.30859C15 5.04338 14.8946 4.78902 14.7071 4.60149C14.5196 4.41395 14.2652 4.30859 14 4.30859H10C9.73478 4.30859 9.48043 4.41395 9.29289 4.60149C9.10536 4.78902 9 5.04338 9 5.30859V6.30859H15Z" fill="#0C4461"/>
</svg>
